{
    "asset" : {
        "generator" : "Khronos glTF Blender I/O v1.7.33",
        "version" : "2.0"
    },
    "extensionsUsed" : [
        "KHR_materials_transmission"
    ],
    "scene" : 0,
    "scenes" : [
        {
            "name" : "Scene",
            "nodes" : [
                0,
                1,
                2
            ]
        }
    ],
    "nodes" : [
        {
            "mesh" : 0,
            "name" : "Cube",
            "scale" : [
                1,
                1.2136577367782593,
                0.7506095170974731
            ]
        },
        {
            "mesh" : 1,
            "name" : "Cube.001",
            "rotation" : [
                -0.09648634493350983,
                0,
                0,
                0.9953343272209167
            ],
            "scale" : [
                0.6391893625259399,
                0.3512139916419983,
                0.3512139916419983
            ],
            "translation" : [
                0,
                0.13121825456619263,
                0.5713793635368347
            ]
        },
        {
            "mesh" : 2,
            "name" : "Cube.002",
            "rotation" : [
                -0.05681763216853142,
                0,
                0,
                0.9983845949172974
            ],
            "scale" : [
                0.662225604057312,
                0.8992006778717041,
                0.3290172219276428
            ],
            "translation" : [
                0.011364930309355259,
                -0.6763606071472168,
                -1.0202604532241821
            ]
        }
    ],
    "materials" : [
        {
            "doubleSided" : true,
            "name" : "Material",
            "pbrMetallicRoughness" : {
                "baseColorFactor" : [
                    0.8000000715255737,
                    0.03570856899023056,
                    0.034219883382320404,
                    1
                ],
                "metallicFactor" : 0,
                "roughnessFactor" : 0.4000000059604645
            }
        },
        {
            "doubleSided" : true,
            "extensions" : {
                "KHR_materials_transmission" : {
                    "transmissionFactor" : 0.8051948547363281
                }
            },
            "name" : "Material.002",
            "pbrMetallicRoughness" : {
                "baseColorFactor" : [
                    0.23254196345806122,
                    0.3959638774394989,
                    0.8000000715255737,
                    1
                ],
                "metallicFactor" : 0,
                "roughnessFactor" : 0
            }
        }
    ],
    "meshes" : [
        {
            "name" : "Cube",
            "primitives" : [
                {
                    "attributes" : {
                        "POSITION" : 0,
                        "NORMAL" : 1,
                        "TEXCOORD_0" : 2
                    },
                    "indices" : 3,
                    "material" : 0
                }
            ]
        },
        {
            "name" : "Cube.001",
            "primitives" : [
                {
                    "attributes" : {
                        "POSITION" : 4,
                        "NORMAL" : 5,
                        "TEXCOORD_0" : 6
                    },
                    "indices" : 7,
                    "material" : 1
                }
            ]
        },
        {
            "name" : "Cube.002",
            "primitives" : [
                {
                    "attributes" : {
                        "POSITION" : 8,
                        "NORMAL" : 9,
                        "TEXCOORD_0" : 10
                    },
                    "indices" : 11,
                    "material" : 0
                }
            ]
        }
    ],
    "accessors" : [
        {
            "bufferView" : 0,
            "componentType" : 5126,
            "count" : 2185,
            "max" : [
                0.958333432674408,
                0.8222408890724182,
                0.9831545948982239
            ],
            "min" : [
                -0.958333432674408,
                -1.801663875579834,
                -1.0637212991714478
            ],
            "type" : "VEC3"
        },
        {
            "bufferView" : 1,
            "componentType" : 5126,
            "count" : 2185,
            "type" : "VEC3"
        },
        {
            "bufferView" : 2,
            "componentType" : 5126,
            "count" : 2185,
            "type" : "VEC2"
        },
        {
            "bufferView" : 3,
            "componentType" : 5123,
            "count" : 12288,
            "type" : "SCALAR"
        },
        {
            "bufferView" : 4,
            "componentType" : 5126,
            "count" : 729,
            "max" : [
                0.9197531938552856,
                0.9166667461395264,
                0.9166667461395264
            ],
            "min" : [
                -0.9197531938552856,
                -0.9166667461395264,
                -0.9166667461395264
            ],
            "type" : "VEC3"
        },
        {
            "bufferView" : 5,
            "componentType" : 5126,
            "count" : 729,
            "type" : "VEC3"
        },
        {
            "bufferView" : 6,
            "componentType" : 5126,
            "count" : 729,
            "type" : "VEC2"
        },
        {
            "bufferView" : 7,
            "componentType" : 5123,
            "count" : 3840,
            "type" : "SCALAR"
        },
        {
            "bufferView" : 8,
            "componentType" : 5126,
            "count" : 2258,
            "max" : [
                0.9921689629554749,
                0.9957858324050903,
                1.0000001192092896
            ],
            "min" : [
                -0.9921689033508301,
                -0.9957858324050903,
                -1.0000001192092896
            ],
            "type" : "VEC3"
        },
        {
            "bufferView" : 9,
            "componentType" : 5126,
            "count" : 2258,
            "type" : "VEC3"
        },
        {
            "bufferView" : 10,
            "componentType" : 5126,
            "count" : 2258,
            "type" : "VEC2"
        },
        {
            "bufferView" : 11,
            "componentType" : 5123,
            "count" : 11520,
            "type" : "SCALAR"
        }
    ],
    "bufferViews" : [
        {
            "buffer" : 0,
            "byteLength" : 26220,
            "byteOffset" : 0
        },
        {
            "buffer" : 0,
            "byteLength" : 26220,
            "byteOffset" : 26220
        },
        {
            "buffer" : 0,
            "byteLength" : 17480,
            "byteOffset" : 52440
        },
        {
            "buffer" : 0,
            "byteLength" : 24576,
            "byteOffset" : 69920
        },
        {
            "buffer" : 0,
            "byteLength" : 8748,
            "byteOffset" : 94496
        },
        {
            "buffer" : 0,
            "byteLength" : 8748,
            "byteOffset" : 103244
        },
        {
            "buffer" : 0,
            "byteLength" : 5832,
            "byteOffset" : 111992
        },
        {
            "buffer" : 0,
            "byteLength" : 7680,
            "byteOffset" : 117824
        },
        {
            "buffer" : 0,
            "byteLength" : 27096,
            "byteOffset" : 125504
        },
        {
            "buffer" : 0,
            "byteLength" : 27096,
            "byteOffset" : 152600
        },
        {
            "buffer" : 0,
            "byteLength" : 18064,
            "byteOffset" : 179696
        },
        {
            "buffer" : 0,
            "byteLength" : 23040,
            "byteOffset" : 197760
        }
    ],
    "buffers" : [
        {
            "byteLength" : 220800,
            "uri" : "data:application/octet-stream;base64,"
        }
    ]
}
